<svg xmlns="http://www.w3.org/2000/svg" xmlns:xlink="http://www.w3.org/1999/xlink" width="500" zoomAndPan="magnify" viewBox="0 0 375 374.999991" height="500" preserveAspectRatio="xMidYMid meet" version="1.0"><defs><g/></defs><g fill="#9d21e4" fill-opacity="1"><g transform="translate(42.927743, 223.740992)"><g><path d="M 98.359375 22.371094 C 94.65625 23.695312 88.566406 24.359375 84.859375 22.371094 C 81.019531 20.253906 82.476562 14.429688 83.269531 10.988281 C 84.859375 3.839844 87.636719 -3.175781 90.417969 -10.0625 C 92.007812 -13.636719 93.464844 -17.34375 95.050781 -21.050781 C 95.449219 -21.84375 98.890625 -30.449219 98.757812 -30.449219 C 98.492188 -30.449219 98.097656 -30.050781 97.832031 -29.523438 C 102.464844 -39.1875 110.277344 -49.910156 108.15625 -61.425781 C 107.230469 -66.324219 103.789062 -71.222656 98.359375 -71.089844 C 93.726562 -71.089844 89.492188 -67.648438 86.3125 -64.734375 C 80.355469 -59.441406 75.457031 -53.21875 70.824219 -46.863281 C 70.296875 -46.203125 68.175781 -43.023438 65.792969 -39.316406 C 66.984375 -41.304688 68.574219 -43.15625 69.898438 -45.011719 C 64.339844 -37.199219 59.441406 -28.992188 54.675781 -20.785156 C 58.382812 -33.226562 64.472656 -44.746094 69.632812 -56.527344 C 71.621094 -60.898438 74.929688 -64.867188 76.78125 -69.371094 C 78.769531 -74.265625 77.578125 -80.488281 74.265625 -84.59375 C 66.984375 -93.464844 56.527344 -78.105469 52.160156 -73.472656 C 43.289062 -64.074219 35.875 -52.953125 28.992188 -42.230469 C 29.917969 -45.144531 30.449219 -47.921875 31.507812 -50.835938 C 32.832031 -54.542969 34.289062 -58.117188 35.480469 -61.824219 C 36.800781 -65.664062 37.996094 -69.632812 39.1875 -73.472656 C 40.378906 -77.3125 41.699219 -82.476562 40.773438 -86.578125 C 40.113281 -89.492188 38.921875 -93.59375 36.800781 -95.847656 C 33.492188 -99.421875 28.859375 -99.15625 24.625 -97.832031 C 20.785156 -96.640625 17.476562 -94.785156 14.429688 -92.273438 C 12.839844 -90.816406 11.386719 -89.359375 9.929688 -87.769531 L 8.605469 -85.917969 C 7.8125 -84.859375 7.941406 -83.800781 7.546875 -82.871094 C 6.222656 -79.960938 3.972656 -77.710938 3.042969 -74.53125 C 2.117188 -70.957031 1.851562 -65.925781 3.972656 -62.75 C 5.03125 -61.292969 6.75 -60.234375 8.339844 -61.558594 C 9.265625 -62.484375 8.871094 -63.410156 9.003906 -64.472656 C 9.132812 -65.265625 9.53125 -67.382812 10.0625 -68.707031 C 12.445312 -75.195312 16.019531 -81.679688 20.785156 -86.710938 C 22.769531 -88.960938 25.152344 -91.082031 28.066406 -91.875 C 32.035156 -92.800781 32.167969 -89.625 31.640625 -86.445312 L 30.84375 -81.546875 L 30.84375 -82.871094 C 27.007812 -68.574219 19.59375 -55.335938 14.5625 -41.570312 C 12.046875 -34.816406 9.132812 -28.460938 6.355469 -21.84375 C 3.574219 -15.222656 0.398438 -7.414062 0 -0.132812 C -0.132812 2.382812 0.398438 4.898438 2.382812 6.488281 C 4.632812 8.339844 8.074219 8.472656 9.796875 6.089844 C 11.121094 4.234375 11.78125 0.925781 12.578125 -1.191406 C 13.898438 -4.632812 15.089844 -8.074219 16.546875 -11.386719 C 17.871094 -14.960938 20.121094 -18.136719 22.109375 -21.445312 C 26.34375 -28.332031 30.582031 -35.214844 35.082031 -41.964844 C 39.316406 -48.453125 43.554688 -54.808594 48.1875 -60.898438 C 52.820312 -66.855469 57.453125 -72.945312 63.542969 -77.445312 C 64.472656 -78.105469 67.648438 -80.621094 68.972656 -80.09375 C 70.03125 -79.695312 68.972656 -77.710938 68.574219 -76.648438 C 66.324219 -70.5625 63.410156 -64.339844 60.101562 -58.777344 C 52.425781 -45.804688 44.480469 -31.242188 41.570312 -16.285156 C 40.507812 -11.253906 40.507812 -6.222656 44.480469 -2.382812 C 48.585938 1.457031 50.042969 -1.851562 51.363281 -5.558594 C 52.425781 -8.605469 54.675781 -11.253906 56.261719 -14.03125 C 58.515625 -17.738281 60.632812 -21.578125 63.015625 -25.417969 C 64.472656 -27.535156 65.53125 -30.449219 67.25 -32.035156 C 70.03125 -34.816406 72.015625 -37.996094 74.265625 -41.171875 C 78.902344 -47.789062 83.535156 -54.144531 89.492188 -59.574219 C 90.949219 -60.898438 94.257812 -64.339844 96.507812 -63.808594 C 99.289062 -63.148438 96.242188 -58.777344 96.375 -57.058594 L 97.300781 -58.910156 C 96.507812 -56.527344 95.714844 -54.277344 94.785156 -52.027344 C 94.65625 -52.160156 95.183594 -53.746094 95.183594 -53.746094 C 94.65625 -53.878906 91.875 -47.527344 91.476562 -46.863281 C 89.492188 -42.761719 87.109375 -38.65625 85.652344 -34.289062 C 84.195312 -30.316406 82.738281 -26.609375 81.019531 -22.769531 L 78.105469 -16.152344 C 77.578125 -14.695312 75.988281 -11.515625 76.386719 -9.929688 C 76.519531 -9.929688 76.648438 -9.929688 76.648438 -10.0625 L 75.988281 -7.679688 C 76.121094 -8.207031 76.253906 -9.398438 76.253906 -9.53125 C 75.722656 -9.132812 75.589844 -6.488281 75.589844 -6.488281 C 72.414062 4.632812 71.089844 16.414062 78.769531 26.34375 C 82.476562 31.109375 86.84375 33.226562 92.667969 31.640625 C 95.449219 30.976562 98.097656 29.652344 100.347656 27.800781 C 101.671875 26.609375 105.773438 23.035156 105.246094 20.917969 C 104.847656 18.796875 99.683594 21.976562 98.359375 22.371094 Z M 80.753906 -17.34375 C 81.945312 -19.726562 83.003906 -22.242188 84.0625 -24.753906 C 84.859375 -26.742188 85.386719 -30.316406 86.710938 -31.90625 C 87.109375 -31.773438 87.109375 -31.375 86.710938 -30.582031 C 85.785156 -25.816406 83.136719 -20.519531 81.019531 -16.019531 C 79.296875 -12.179688 77.578125 -8.207031 76.253906 -4.234375 C 77.578125 -8.605469 78.636719 -12.972656 80.753906 -17.34375 Z M 22.109375 -56.925781 C 23.960938 -61.292969 25.417969 -65.925781 27.269531 -70.296875 C 28.066406 -72.148438 28.992188 -74.265625 29.652344 -76.386719 C 28.066406 -70.164062 26.078125 -63.941406 23.167969 -57.984375 C 20.386719 -52.292969 17.871094 -46.464844 15.488281 -40.507812 C 17.605469 -46.070312 19.726562 -51.496094 22.109375 -56.925781 Z M 64.472656 -37.332031 C 61.027344 -31.773438 57.320312 -26.078125 57.320312 -26.078125 C 57.71875 -25.945312 62.617188 -34.15625 64.472656 -37.332031 Z M 84.59375 -62.617188 L 79.695312 -57.453125 C 81.285156 -59.308594 82.871094 -61.027344 84.59375 -62.617188 Z M 75.195312 0 C 74.796875 -0.132812 74.796875 -0.398438 75.195312 -0.925781 C 75.457031 -0.792969 75.457031 -0.53125 75.195312 0 Z M 78.371094 -55.867188 L 78.636719 -56.261719 L 78.636719 -56.128906 C 78.902344 -56.660156 79.296875 -57.058594 79.429688 -57.191406 L 79.695312 -57.453125 L 79.429688 -57.058594 L 79.03125 -56.660156 L 78.902344 -56.527344 C 78.902344 -56.527344 79.03125 -56.527344 79.03125 -56.660156 L 78.902344 -56.527344 L 78.769531 -56.261719 Z M 64.734375 -37.730469 L 65.265625 -38.523438 L 65.265625 -38.390625 Z M 64.472656 -37.332031 L 64.734375 -37.730469 C 64.734375 -37.597656 64.601562 -37.464844 64.472656 -37.332031 Z M 79.296875 -57.058594 L 79.429688 -57.191406 C 79.429688 -57.191406 79.429688 -57.058594 79.296875 -57.058594 Z M 79.296875 -57.058594 "/></g></g></g><g fill="#9d21e4" fill-opacity="1"><g transform="translate(153.202036, 223.740992)"><g><path d="M 34.683594 -32.566406 C 34.417969 -34.289062 32.566406 -33.757812 31.640625 -33.097656 C 30.449219 -32.300781 23.828125 -23.5625 24.359375 -22.902344 C 24.753906 -22.902344 25.019531 -22.902344 25.285156 -23.167969 C 23.433594 -20.917969 19.988281 -18.402344 17.476562 -16.414062 C 16.019531 -15.222656 12.445312 -11.914062 10.324219 -12.972656 C 5.824219 -15.222656 14.960938 -31.109375 14.5625 -31.242188 C 14.164062 -31.375 10.855469 -23.960938 10.195312 -22.242188 C 11.78125 -26.875 13.898438 -31.507812 16.414062 -35.609375 C 16.285156 -35.214844 15.886719 -34.550781 16.152344 -34.550781 C 16.414062 -34.417969 18.402344 -37.199219 18.003906 -37.464844 C 17.871094 -37.464844 17.605469 -37.464844 17.476562 -37.332031 C 17.871094 -37.730469 18.535156 -37.863281 18.535156 -38.65625 C 18.535156 -39.980469 15.488281 -41.304688 14.429688 -41.699219 C 11.914062 -42.761719 9.398438 -43.023438 7.414062 -41.699219 C 4.765625 -40.113281 4.234375 -36.933594 3.175781 -34.15625 C 2.914062 -33.359375 0.398438 -23.960938 0.925781 -23.828125 C 1.191406 -23.960938 1.191406 -24.09375 1.324219 -24.359375 L 0.925781 -21.976562 C 0.792969 -21.976562 1.058594 -22.636719 0.792969 -22.636719 C -0.265625 -22.636719 0 -17.871094 0.132812 -17.210938 C 0.660156 -14.828125 2.515625 -13.105469 3.972656 -11.121094 C 4.765625 -9.929688 5.558594 -8.738281 6.75 -7.941406 C 8.339844 -6.75 7.28125 -7.941406 8.339844 -7.414062 L 8.074219 -7.414062 C 7.941406 -6.621094 12.972656 -5.296875 14.03125 -5.429688 C 18.667969 -6.488281 21.976562 -12.179688 24.625 -15.753906 C 27.140625 -18.929688 29.257812 -22.109375 31.507812 -25.417969 C 32.832031 -27.140625 35.214844 -30.050781 34.683594 -32.566406 Z M 11.515625 -49.246094 C 11.78125 -48.851562 11.386719 -48.320312 12.3125 -47.789062 C 13.238281 -47.394531 13.769531 -47.921875 14.5625 -48.1875 C 16.152344 -48.851562 17.34375 -50.570312 18.535156 -51.628906 C 18.929688 -51.894531 18.136719 -51.761719 18.136719 -51.761719 C 19.859375 -53.351562 18.402344 -51.496094 19.988281 -52.425781 C 21.578125 -53.484375 21.84375 -55.203125 23.167969 -56.660156 C 21.578125 -56 20.386719 -55.070312 19.328125 -53.746094 C 18.003906 -52.027344 17.078125 -51.234375 15.621094 -50.304688 C 17.210938 -51.496094 18.003906 -52.6875 19.328125 -54.808594 C 19.726562 -55.203125 20.121094 -55.46875 20.652344 -55.734375 C 20.253906 -56.128906 20.253906 -56.527344 20.785156 -56.925781 C 21.179688 -57.585938 21.976562 -57.851562 22.371094 -58.515625 C 23.035156 -59.441406 22.902344 -60.632812 23.695312 -61.558594 C 24.359375 -62.089844 25.285156 -62.484375 25.816406 -63.015625 C 27.007812 -64.074219 28.332031 -66.058594 27.800781 -67.78125 C 27.269531 -69.371094 25.945312 -71.355469 24.492188 -72.28125 C 22.769531 -73.207031 20.386719 -73.605469 18.535156 -72.8125 C 18.136719 -72.679688 16.546875 -72.28125 17.078125 -71.753906 C 17.210938 -71.488281 17.34375 -71.488281 17.605469 -71.488281 C 16.414062 -70.5625 14.429688 -68.972656 17.210938 -67.914062 C 16.945312 -67.648438 17.210938 -66.457031 17.210938 -66.324219 C 17.078125 -65.398438 15.222656 -60.5 14.03125 -58.117188 L 15.621094 -60.5 C 14.695312 -58.515625 13.636719 -56.660156 12.445312 -55.070312 C 13.238281 -56.792969 11.648438 -54.808594 11.648438 -54.410156 C 10.195312 -55.070312 10.589844 -50.96875 10.722656 -50.570312 C 10.722656 -50.4375 11.515625 -49.246094 11.515625 -49.246094 Z M 9.003906 -17.738281 L 9.003906 -17.605469 L 8.738281 -16.8125 L 9.003906 -17.871094 C 9.132812 -18.003906 9.132812 -18.003906 9.003906 -17.738281 Z M 13.371094 -57.058594 C 13.371094 -57.058594 13.636719 -57.320312 13.898438 -57.851562 Z M 12.046875 -54.542969 C 12.046875 -54.410156 12.046875 -54.410156 11.914062 -54.277344 C 11.914062 -54.277344 11.914062 -54.410156 11.78125 -54.410156 C 11.914062 -54.410156 11.914062 -54.410156 12.046875 -54.542969 Z M 12.046875 -54.542969 "/></g></g></g><g fill="#9d21e4" fill-opacity="1"><g transform="translate(178.222259, 223.740992)"><g><path d="M 67.25 -32.433594 L 67.25 -32.566406 L 67.117188 -32.566406 C 65.53125 -34.816406 63.148438 -31.242188 61.558594 -30.050781 C 58.117188 -27.269531 54.542969 -25.019531 50.835938 -22.636719 C 50.96875 -23.300781 50.96875 -30.449219 50.570312 -30.183594 C 50.304688 -29.785156 50.304688 -29.390625 50.304688 -28.992188 C 50.042969 -33.226562 49.378906 -38.65625 44.214844 -40.246094 C 42.230469 -40.90625 40.378906 -40.378906 38.523438 -39.582031 C 33.359375 -37.199219 28.992188 -32.167969 25.285156 -28.199219 C 22.109375 -24.753906 19.195312 -21.050781 16.546875 -17.210938 C 18.003906 -19.0625 19.59375 -20.785156 20.917969 -22.242188 C 18.003906 -18.535156 15.222656 -14.5625 13.105469 -10.324219 L 13.636719 -12.445312 L 13.371094 -11.78125 C 14.429688 -18.929688 15.753906 -26.078125 17.34375 -33.097656 C 18.003906 -36.40625 18.402344 -41.304688 20.121094 -44.214844 C 21.445312 -46.597656 25.550781 -46.863281 27.007812 -49.246094 C 27.007812 -49.246094 26.609375 -48.980469 26.078125 -48.71875 C 27.933594 -50.171875 29.652344 -51.761719 31.375 -53.21875 C 31.375 -53.085938 30.050781 -51.761719 30.050781 -51.761719 C 30.976562 -51.101562 38.390625 -58.910156 39.054688 -59.707031 C 42.230469 -63.015625 45.273438 -66.589844 47.65625 -70.691406 C 49.777344 -74.398438 52.160156 -77.972656 54.144531 -81.679688 C 55.46875 -83.800781 56.527344 -85.917969 57.585938 -88.167969 C 58.25 -89.757812 60.101562 -93.066406 59.707031 -94.917969 C 59.574219 -95.050781 59.441406 -95.050781 59.308594 -94.917969 L 60.101562 -98.097656 C 60.101562 -98.097656 59.835938 -95.582031 59.707031 -95.449219 C 60.367188 -95.976562 60.234375 -98.757812 60.234375 -98.757812 C 61.824219 -106.304688 61.824219 -121.394531 51.101562 -121.925781 C 45.539062 -122.058594 41.039062 -117.027344 37.863281 -113.1875 C 34.15625 -108.554688 30.976562 -103.390625 28.199219 -98.097656 C 23.035156 -88.960938 19.0625 -79.164062 15.089844 -69.5 C 10.589844 -58.382812 6.621094 -46.863281 3.972656 -35.214844 C 2.25 -28.332031 0.925781 -21.445312 0.398438 -14.429688 C 0.265625 -12.707031 -0.925781 -3.308594 1.457031 -2.382812 C 1.457031 -2.25 1.457031 -2.78125 1.324219 -3.574219 C 1.457031 -2.914062 1.722656 -2.515625 1.984375 -1.984375 C 1.851562 -1.984375 2.648438 0 2.648438 0 C 3.308594 1.191406 4.234375 2.382812 5.429688 3.175781 C 7.679688 4.765625 10.722656 5.558594 12.3125 2.914062 C 13.636719 0.792969 14.164062 -2.78125 15.355469 -5.164062 C 15.753906 -6.222656 16.285156 -7.28125 16.8125 -8.339844 C 16.679688 -9.003906 16.8125 -9.53125 17.34375 -9.929688 C 17.605469 -9.796875 17.871094 -9.929688 18.269531 -10.195312 C 20.253906 -12.445312 21.445312 -15.488281 23.035156 -18.136719 C 23.695312 -19.195312 32.300781 -30.582031 33.359375 -31.109375 C 33.226562 -31.109375 33.097656 -31.109375 32.964844 -30.976562 C 33.757812 -31.773438 34.417969 -32.300781 35.347656 -32.964844 C 35.480469 -32.699219 34.683594 -32.300781 34.816406 -32.167969 C 34.816406 -32.167969 39.582031 -33.890625 40.113281 -33.890625 C 41.832031 -33.492188 41.570312 -30.714844 41.4375 -29.390625 C 41.171875 -27.402344 40.246094 -25.550781 39.316406 -23.828125 C 38.789062 -22.769531 37.863281 -21.578125 37.597656 -20.519531 C 37.597656 -20.386719 36.800781 -18.269531 37.597656 -19.195312 L 37.199219 -18.535156 C 36.800781 -17.871094 34.289062 -14.5625 33.757812 -14.164062 C 31.507812 -12.046875 29.785156 -9.53125 27.667969 -7.414062 C 25.019531 -4.765625 19.0625 -3.574219 23.035156 1.324219 C 30.183594 10.0625 41.171875 -3.707031 45.011719 -9.265625 C 47.128906 -12.445312 49.777344 -15.222656 52.027344 -17.871094 C 52.820312 -18.796875 54.277344 -19.988281 55.335938 -20.652344 C 55.734375 -20.917969 56.394531 -20.917969 56.792969 -21.3125 C 57.851562 -22.371094 57.984375 -22.902344 58.910156 -23.828125 C 60.632812 -25.550781 63.542969 -26.078125 65.132812 -28.066406 C 65.398438 -28.460938 65.398438 -28.726562 65 -29.125 C 65.132812 -29.390625 65.398438 -29.390625 65.664062 -29.257812 L 66.457031 -29.652344 C 67.117188 -30.582031 68.046875 -31.109375 67.25 -32.433594 Z M 52.425781 -115.96875 C 56.660156 -115.96875 56.128906 -104.847656 56 -102.464844 C 55.734375 -98.625 54.808594 -94.785156 53.484375 -91.210938 C 52.554688 -88.433594 51.496094 -84.195312 49.777344 -81.945312 C 46.335938 -77.445312 42.496094 -72.28125 38.789062 -67.648438 C 34.023438 -61.691406 28.332031 -56.660156 22.371094 -51.894531 C 24.753906 -59.835938 27.535156 -67.78125 30.582031 -75.589844 C 31.375 -77.445312 39.054688 -97.566406 40.113281 -98.492188 C 39.847656 -98.359375 39.582031 -98.097656 39.316406 -97.699219 C 41.570312 -102.597656 43.953125 -107.496094 47.394531 -111.863281 L 45.671875 -108.6875 C 46.996094 -110.277344 52.160156 -116.101562 52.425781 -115.703125 C 52.292969 -115.96875 51.363281 -115.703125 50.96875 -115.4375 C 51.363281 -115.835938 51.894531 -115.96875 52.425781 -115.96875 Z M 26.34375 -91.742188 C 29.390625 -97.566406 32.566406 -102.996094 36.671875 -108.289062 C 39.316406 -111.863281 43.15625 -116.101562 47.921875 -117.6875 C 43.289062 -116.101562 40.113281 -111.996094 37.332031 -108.15625 C 33.492188 -102.863281 30.316406 -97.300781 27.007812 -91.609375 C 21.976562 -83.003906 18.003906 -73.871094 14.5625 -64.734375 C 17.871094 -73.871094 21.710938 -83.003906 26.34375 -91.742188 Z M 35.082031 -12.972656 C 32.832031 -9.929688 29.523438 -6.089844 26.210938 -4.234375 C 27.933594 -5.296875 29.257812 -7.28125 30.976562 -9.265625 C 33.359375 -12.3125 35.609375 -15.355469 37.863281 -18.535156 C 38.921875 -19.988281 41.964844 -25.417969 42.890625 -29.652344 C 41.964844 -23.695312 38.257812 -17.871094 35.082031 -12.972656 Z M 21.710938 -51.363281 L 21.710938 -51.628906 L 21.84375 -51.894531 C 21.84375 -52.027344 21.976562 -52.160156 21.976562 -52.425781 C 21.976562 -52.554688 21.976562 -52.6875 22.109375 -52.820312 L 22.109375 -52.953125 L 23.828125 -58.382812 L 23.167969 -56 C 22.902344 -54.9375 22.503906 -52.027344 21.710938 -51.363281 Z M 27.667969 -69.238281 C 29.785156 -74.796875 31.90625 -80.355469 34.15625 -85.785156 Z M 13.769531 -12.578125 L 16.546875 -17.210938 C 15.488281 -15.753906 14.429688 -14.164062 13.769531 -12.578125 Z M 21.710938 -51.363281 L 21.710938 -51.628906 L 21.84375 -51.761719 C 21.84375 -51.628906 21.710938 -51.496094 21.710938 -51.363281 Z M 24.753906 -27.007812 C 24.753906 -26.875 24.625 -26.875 24.625 -26.875 Z M 24.753906 -27.007812 "/></g></g></g><g fill="#9d21e4" fill-opacity="1"><g transform="translate(236.073234, 223.740992)"><g><path d="M 52.953125 -33.757812 C 51.101562 -31.773438 49.910156 -28.460938 48.453125 -26.078125 C 46.203125 -22.242188 43.953125 -18.535156 41.570312 -14.828125 C 37.066406 -7.679688 32.566406 -0.398438 27.140625 6.089844 C 24.886719 8.871094 20.121094 15.621094 15.621094 15.089844 C 12.3125 14.5625 12.3125 8.871094 12.3125 6.355469 C 12.3125 4.234375 12.445312 2.117188 12.707031 0.132812 C 12.839844 -1.058594 13.898438 -5.03125 13.238281 -6.089844 L 12.179688 -2.117188 C 12.3125 -3.707031 12.578125 -5.429688 12.972656 -7.015625 C 12.839844 -7.28125 14.03125 -10.988281 14.296875 -12.179688 C 14.960938 -14.828125 15.621094 -17.476562 16.414062 -20.121094 C 17.078125 -22.769531 17.738281 -25.285156 18.535156 -27.800781 C 19.195312 -30.183594 20.121094 -31.375 21.578125 -33.226562 C 27.535156 -40.640625 32.964844 -48.71875 37.996094 -56.792969 C 39.847656 -59.835938 41.039062 -62.484375 43.289062 -65 C 46.597656 -68.441406 48.851562 -73.605469 50.96875 -77.839844 C 54.542969 -84.726562 59.308594 -94.257812 58.515625 -102.332031 L 58.515625 -102.996094 L 58.382812 -103.128906 C 57.585938 -108.289062 52.820312 -114.378906 46.996094 -112.527344 C 43.953125 -111.601562 41.699219 -108.421875 39.847656 -106.171875 L 36.800781 -102.066406 C 36.140625 -101.273438 35.214844 -99.289062 34.550781 -98.230469 L 34.683594 -98.359375 L 30.449219 -91.082031 L 31.507812 -93.332031 C 30.84375 -93.464844 27.933594 -87.769531 27.535156 -87.109375 C 26.078125 -84.59375 24.753906 -82.078125 23.5625 -79.5625 C 20.917969 -74.265625 18.269531 -68.839844 16.546875 -63.148438 C 14.695312 -57.453125 12.578125 -51.894531 10.589844 -46.203125 C 9.53125 -43.15625 8.472656 -39.980469 7.546875 -36.933594 C 6.75 -34.417969 4.898438 -30.316406 5.296875 -27.667969 L 5.691406 -27.667969 C 5.296875 -26.742188 5.03125 -25.816406 4.765625 -24.886719 C 4.898438 -25.683594 4.898438 -26.609375 5.03125 -26.875 C 4.367188 -25.945312 4.5 -22.769531 4.367188 -22.503906 C 2.648438 -15.355469 0.660156 -8.207031 0.132812 -0.792969 C -0.265625 6.222656 -0.265625 15.488281 5.296875 20.652344 C 11.515625 26.34375 18.667969 22.503906 23.828125 17.605469 C 29.917969 11.648438 35.082031 4.632812 39.847656 -2.25 C 44.214844 -8.605469 47.65625 -15.355469 51.628906 -21.710938 C 53.21875 -24.359375 54.9375 -27.007812 55.734375 -29.917969 C 56.261719 -32.035156 56 -36.933594 52.953125 -33.757812 Z M 36.40625 -81.152344 C 39.054688 -87.503906 41.699219 -93.992188 45.40625 -99.949219 C 46.335938 -101.40625 52.292969 -109.347656 52.027344 -102.332031 L 52.027344 -102.199219 C 51.761719 -94.785156 46.996094 -86.976562 43.820312 -80.621094 L 38.257812 -70.296875 C 36.40625 -67.117188 33.226562 -63.148438 32.167969 -59.707031 C 32.964844 -61.824219 35.347656 -64.867188 36.539062 -66.855469 C 38.523438 -70.164062 40.246094 -73.472656 42.097656 -76.78125 C 45.144531 -82.609375 48.453125 -88.695312 50.703125 -95.050781 C 44.746094 -77.3125 33.625 -60.765625 23.828125 -45.011719 C 27.667969 -56.660156 31.507812 -69.371094 36.40625 -81.152344 Z M 32.167969 -90.417969 C 33.492188 -92.933594 35.875 -95.050781 37.199219 -97.433594 C 34.417969 -91.875 30.976562 -86.84375 28.066406 -81.546875 C 28.066406 -81.679688 28.066406 -81.945312 28.199219 -82.078125 C 29.390625 -84.992188 30.714844 -87.636719 32.167969 -90.417969 Z M 7.148438 -21.976562 C 7.015625 -21.710938 7.015625 -21.578125 7.015625 -21.578125 C 5.429688 -17.871094 5.296875 -12.839844 4.5 -8.871094 C 4.367188 -7.941406 4.105469 -7.148438 4.105469 -6.222656 L 4.105469 -6.621094 L 3.707031 -2.382812 C 3.972656 -7.148438 4.5 -12.046875 5.429688 -16.679688 L 5.429688 -16.546875 C 5.824219 -19.59375 6.488281 -22.371094 7.015625 -22.371094 C 7.28125 -22.503906 7.28125 -22.109375 7.148438 -21.976562 Z M 7.148438 -21.976562 "/></g></g></g><g fill="#9d21e4" fill-opacity="1"><g transform="translate(282.936495, 223.740992)"><g><path d="M 50.703125 -32.699219 C 50.703125 -32.566406 50.703125 -32.566406 50.570312 -32.699219 L 50.570312 -32.832031 C 48.453125 -36.40625 45.671875 -31.507812 44.480469 -29.785156 C 42.230469 -26.742188 40.113281 -23.828125 37.730469 -21.050781 C 35.742188 -18.667969 33.625 -16.285156 32.035156 -13.769531 C 32.035156 -13.503906 31.773438 -12.839844 31.773438 -12.839844 C 31.242188 -12.046875 30.449219 -11.386719 29.785156 -10.589844 C 28.59375 -9.398438 27.402344 -8.074219 26.078125 -6.882812 C 24.09375 -5.03125 12.972656 5.429688 11.515625 -1.324219 C 10.722656 -4.632812 11.78125 -8.738281 12.445312 -11.914062 C 12.839844 -13.636719 13.238281 -15.222656 13.503906 -16.945312 C 13.769531 -18.269531 13.371094 -19.59375 14.03125 -20.917969 C 14.429688 -21.710938 14.5625 -21.578125 15.488281 -21.84375 L 17.738281 -22.636719 C 19.195312 -23.167969 20.652344 -23.695312 21.976562 -24.492188 C 23.960938 -25.683594 25.816406 -27.140625 27.535156 -28.59375 C 31.640625 -32.035156 36.007812 -36.140625 37.730469 -41.304688 C 38.65625 -44.214844 38.789062 -47.394531 36.933594 -49.910156 C 35.214844 -52.160156 32.300781 -53.351562 29.652344 -53.878906 C 22.503906 -55.203125 17.078125 -51.101562 12.972656 -45.671875 C 7.941406 -39.449219 4.367188 -31.773438 2.648438 -23.960938 C 1.722656 -20.121094 1.191406 -16.285156 0.53125 -12.3125 C -0.132812 -8.339844 -0.53125 -4.632812 1.589844 -0.925781 C 1.457031 -2.25 1.191406 -3.441406 1.191406 -4.632812 C 1.191406 -5.296875 1.457031 -5.957031 1.457031 -6.488281 C 1.457031 -6.75 1.191406 -7.546875 1.191406 -7.941406 C 1.191406 -9.132812 1.457031 -10.0625 1.722656 -11.253906 C 1.851562 -12.445312 1.722656 -13.636719 1.851562 -14.828125 C 1.984375 -16.152344 2.515625 -17.210938 3.042969 -18.402344 C 3.441406 -19.460938 3.574219 -20.386719 3.972656 -21.445312 C 4.367188 -22.371094 4.632812 -23.433594 5.03125 -24.492188 C 5.164062 -25.152344 5.824219 -25.945312 6.222656 -26.742188 C 5.824219 -25.550781 5.03125 -24.492188 4.765625 -23.433594 C 4.367188 -21.84375 4.632812 -20.121094 4.5 -18.535156 C 4.234375 -16.8125 3.707031 -15.089844 3.441406 -13.238281 C 3.175781 -11.515625 2.382812 -9.929688 2.117188 -8.207031 C 1.851562 -6.621094 1.324219 -5.429688 1.457031 -3.839844 C 1.457031 -2.914062 1.589844 -1.984375 1.722656 -1.191406 C 1.851562 -0.132812 2.515625 0.53125 3.175781 1.324219 C 5.429688 3.972656 8.472656 6.089844 11.914062 7.015625 C 14.296875 7.679688 16.414062 7.546875 18.667969 6.355469 C 21.84375 4.632812 24.625 1.984375 27.007812 -0.53125 C 29.257812 -3.042969 30.976562 -5.824219 32.964844 -8.472656 C 34.816406 -10.855469 37.066406 -13.105469 38.921875 -15.488281 L 46.070312 -24.753906 L 50.171875 -30.183594 C 50.835938 -30.976562 51.234375 -31.640625 50.703125 -32.699219 Z M 17.871094 -31.242188 C 18.003906 -31.507812 18.003906 -31.640625 18.003906 -31.640625 C 19.988281 -35.875 21.445312 -40.378906 24.226562 -44.480469 L 26.609375 -47.65625 C 27.140625 -48.320312 28.066406 -49.511719 28.992188 -49.777344 C 30.976562 -50.171875 31.507812 -46.730469 31.375 -45.40625 L 30.84375 -42.628906 C 30.714844 -41.832031 30.976562 -41.304688 30.84375 -40.640625 C 30.582031 -39.847656 29.917969 -39.449219 29.523438 -38.789062 L 27.269531 -35.875 C 24.226562 -32.300781 20.386719 -29.257812 16.152344 -27.007812 C 16.8125 -28.460938 17.210938 -29.917969 17.871094 -31.242188 Z M 17.871094 -31.242188 "/></g></g></g></svg>