<svg xmlns="http://www.w3.org/2000/svg" xmlns:xlink="http://www.w3.org/1999/xlink" width="500" zoomAndPan="magnify" viewBox="0 0 375 374.999991" height="500" preserveAspectRatio="xMidYMid meet" version="1.0"><defs><g/><clipPath id="01101c13c7"><path d="M 37.5 39.039062 L 336 39.039062 L 336 337.539062 L 37.5 337.539062 Z M 37.5 39.039062 " clip-rule="nonzero"/></clipPath></defs><g fill="#9d21e4" fill-opacity="1"><g transform="translate(119.145413, 270.696971)"><g><path d="M 166.617188 -22.84375 C 161.609375 -18.601562 152.496094 -13.992188 145.546875 -14.914062 C 138.3125 -15.96875 137.164062 -25.910156 136.382812 -31.75 C 134.664062 -43.835938 134.882812 -56.417969 135.179688 -68.789062 C 135.558594 -75.300781 135.65625 -81.9375 135.957031 -88.65625 C 136.109375 -90.128906 136.429688 -105.578125 136.222656 -105.5 C 135.808594 -105.34375 135.421875 -104.492188 135.320312 -103.507812 C 136.875 -121.308594 142.765625 -142.625 132.699219 -159.355469 C 128.375 -166.453125 120.128906 -172.074219 111.738281 -168.683594 C 104.507812 -165.960938 99.917969 -158.101562 96.671875 -151.691406 C 90.484375 -139.933594 86.496094 -127.347656 82.996094 -114.710938 C 82.558594 -113.367188 81.121094 -107.167969 79.578125 -99.984375 C 80.269531 -103.78125 81.660156 -107.605469 82.640625 -111.277344 C 78.550781 -95.824219 75.726562 -80.140625 73.109375 -64.535156 C 71.585938 -86.128906 74.324219 -107.675781 75.464844 -129.089844 C 75.996094 -137.074219 78.828125 -145.214844 79.078125 -153.328125 C 79.300781 -162.136719 73.789062 -171.144531 66.214844 -175.605469 C 49.644531 -185.167969 42.34375 -155.066406 38.246094 -145.273438 C 29.925781 -125.398438 24.886719 -103.691406 20.441406 -82.917969 C 20.179688 -88.007812 19.371094 -92.65625 19.3125 -97.824219 C 19.203125 -104.382812 19.378906 -110.816406 19.058594 -117.300781 C 18.871094 -124.066406 18.398438 -130.964844 18.003906 -137.652344 C 17.609375 -144.34375 16.640625 -153.179688 12.785156 -159.039062 C 10.042969 -163.191406 5.773438 -168.898438 1.148438 -171.164062 C -6.113281 -174.800781 -13.1875 -171.664062 -19.023438 -167.113281 C -24.3125 -163 -28.390625 -158.164062 -31.664062 -152.449219 C -33.285156 -149.246094 -34.703125 -146.117188 -36.042969 -142.785156 L -37.019531 -139.117188 C -37.636719 -136.996094 -36.808594 -135.421875 -36.886719 -133.742188 C -37.242188 -128.421875 -39.429688 -123.585938 -39.011719 -118.085938 C -38.359375 -111.964844 -35.820312 -103.960938 -30.648438 -100.246094 C -28.140625 -98.59375 -24.832031 -97.953125 -23.132812 -100.953125 C -22.230469 -102.941406 -23.394531 -104.15625 -23.808594 -105.882812 C -24.070312 -107.203125 -24.691406 -110.738281 -24.644531 -113.117188 C -24.734375 -124.636719 -22.964844 -136.859375 -18.484375 -147.507812 C -16.707031 -152.183594 -14.230469 -156.886719 -10.152344 -159.835938 C -4.5 -163.617188 -2.429688 -158.734375 -1.390625 -153.46875 L 0.246094 -145.359375 L -0.53125 -147.421875 C 1.875 -122.859375 -1.917969 -97.851562 -1.683594 -73.414062 C -1.644531 -61.402344 -2.460938 -49.777344 -2.910156 -37.816406 C -3.363281 -25.855469 -3.734375 -11.800781 -0.078125 -0.207031 C 1.191406 3.796875 3.496094 7.410156 7.527344 8.722656 C 12.128906 10.292969 17.574219 8.480469 18.863281 3.75 C 19.839844 0.0820312 18.929688 -5.472656 18.925781 -9.242188 C 18.96875 -15.390625 18.808594 -21.460938 19.136719 -27.480469 C 19.101562 -33.835938 20.75 -40.113281 21.90625 -46.445312 C 24.472656 -59.675781 27.039062 -72.902344 30.101562 -86.082031 C 32.902344 -98.691406 35.78125 -111.09375 39.433594 -123.316406 C 43.167969 -135.332031 46.820312 -147.554688 53.679688 -158.152344 C 54.738281 -159.730469 58.21875 -165.519531 60.59375 -165.472656 C 62.480469 -165.472656 61.992188 -161.753906 61.996094 -159.867188 C 62.058594 -149.042969 61.167969 -137.625 59.269531 -127.007812 C 54.90625 -102.253906 51.0625 -74.867188 55.300781 -49.816406 C 56.601562 -41.34375 59.554688 -33.496094 68.007812 -29.835938 C 76.664062 -26.253906 76.996094 -32.273438 76.882812 -38.835938 C 76.75 -44.207031 78.707031 -49.660156 79.550781 -54.933594 C 80.886719 -62.039062 81.9375 -69.273438 83.402344 -76.660156 C 84.429688 -80.820312 84.375 -85.988281 86.125 -89.476562 C 88.832031 -95.449219 90.0625 -101.570312 91.710938 -107.851562 C 95.054688 -120.898438 98.550781 -133.535156 104.660156 -145.503906 C 106.15625 -148.421875 109.300781 -155.738281 113.121094 -156.234375 C 117.847656 -156.832031 115.664062 -148.226562 116.878906 -145.621094 L 117.238281 -149.054688 C 117.398438 -144.871094 117.480469 -140.894531 117.355469 -136.835938 C 117.070312 -136.964844 116.964844 -139.757812 116.964844 -139.757812 C 116.058594 -139.652344 115.453125 -128.105469 115.222656 -126.839844 C 114.53125 -119.269531 113.222656 -111.464844 113.515625 -103.792969 C 113.578125 -96.742188 113.480469 -90.101562 113.050781 -83.101562 L 112.390625 -71.0625 C 112.421875 -68.480469 111.808594 -62.589844 113.359375 -60.34375 C 113.566406 -60.421875 113.773438 -60.5 113.695312 -60.707031 L 114.0625 -56.597656 C 113.957031 -57.503906 113.464844 -59.441406 113.386719 -59.644531 C 112.792969 -58.714844 114.140625 -54.507812 114.140625 -54.507812 C 115.714844 -35.289062 120.566406 -16.128906 138.375 -5.144531 C 146.960938 0.117188 155.019531 0.855469 163.175781 -5.042969 C 167.125 -7.707031 170.480469 -11.328125 172.902344 -15.542969 C 174.269531 -18.175781 178.574219 -26.164062 176.503906 -29.160156 C 174.640625 -32.230469 168.449219 -24.242188 166.617188 -22.84375 Z M 115.824219 -74.476562 C 116.285156 -78.894531 116.460938 -83.441406 116.636719 -87.988281 C 116.707031 -91.554688 115.4375 -97.441406 116.570312 -100.699219 C 117.265625 -100.722656 117.5 -100.105469 117.347656 -98.632812 C 118.699219 -90.652344 117.675781 -80.832031 117.015625 -72.566406 C 116.582031 -65.566406 116.230469 -58.359375 116.496094 -51.382812 C 115.996094 -58.976562 115.085938 -66.417969 115.824219 -74.476562 Z M 1.074219 -101.804688 C 1.398438 -109.710938 0.949219 -117.796875 1.277344 -125.699219 C 1.429688 -129.058594 1.632812 -132.910156 1.421875 -136.601562 C 2.59375 -125.960938 3.148438 -115.085938 2.101562 -104.082031 C 1.109375 -93.566406 0.601562 -83 0.382812 -72.304688 C 0.421875 -82.222656 0.542969 -91.9375 1.074219 -101.804688 Z M 78.679688 -96.109375 C 76.574219 -85.410156 74.132812 -74.351562 74.132812 -74.351562 C 74.828125 -74.378906 77.652344 -90.0625 78.679688 -96.109375 Z M 95.230469 -147.378906 L 90.617188 -136.445312 C 92.007812 -140.269531 93.476562 -143.886719 95.230469 -147.378906 Z M 117.332031 -44.152344 C 116.632812 -44.125 116.476562 -44.539062 116.785156 -45.597656 C 117.277344 -45.546875 117.433594 -45.132812 117.332031 -44.152344 Z M 89.484375 -133.1875 L 89.664062 -133.964844 L 89.742188 -133.757812 C 89.84375 -134.738281 90.230469 -135.59375 90.359375 -135.875 L 90.617188 -136.445312 L 90.4375 -135.671875 L 89.921875 -134.53125 C 89.921875 -134.53125 90.128906 -134.609375 90.050781 -134.816406 L 89.921875 -134.53125 L 89.871094 -134.042969 Z M 78.859375 -96.882812 L 79.21875 -98.433594 L 79.296875 -98.226562 Z M 78.679688 -96.109375 L 78.859375 -96.882812 C 78.9375 -96.675781 78.808594 -96.390625 78.679688 -96.109375 Z M 90.230469 -135.59375 L 90.359375 -135.875 C 90.359375 -135.875 90.4375 -135.671875 90.230469 -135.59375 Z M 90.230469 -135.59375 "/></g></g></g><g clip-path="url(#01101c13c7)"><path fill="#9d21e4" d="M 186.726562 337.492188 C 104.285156 337.492188 37.5 270.25 37.5 188.265625 C 37.5 106.285156 104.285156 39.039062 186.726562 39.039062 C 269.167969 39.039062 335.953125 105.824219 335.953125 188.265625 C 335.953125 270.710938 268.710938 337.492188 186.726562 337.492188 Z M 186.726562 48.25 C 109.351562 48.25 46.710938 110.890625 46.710938 188.265625 C 46.710938 265.644531 109.351562 328.28125 186.726562 328.28125 C 264.101562 328.28125 326.742188 265.644531 326.742188 188.265625 C 326.742188 110.890625 263.644531 48.25 186.726562 48.25 Z M 186.726562 48.25 " fill-opacity="1" fill-rule="nonzero"/></g></svg>